<?xml version="1.0" encoding="utf-8"?>
<!-- Generator: Adobe Illustrator 16.0.4, SVG Export Plug-In . SVG Version: 6.00 Build 0)  -->
<!DOCTYPE svg PUBLIC "-//W3C//DTD SVG 1.1//EN" "http://www.w3.org/Graphics/SVG/1.1/DTD/svg11.dtd">
<svg version="1.1" xmlns="http://www.w3.org/2000/svg" xmlns:xlink="http://www.w3.org/1999/xlink" x="0px" y="0px" width="800px"
	 height="800px" viewBox="0 0 800 800" enable-background="new 0 0 800 800" xml:space="preserve">
<g id="Calque_1" display="none">
	
		<image display="inline" overflow="visible" width="1035" height="776" xlink:href="56177-full.png"  transform="matrix(0.7501 0 0 0.7501 12 109)">
	</image>
</g>
<g id="La_casquette">
	<path fill="#406D33" d="M274.7,300.99c0,0,20.763-13.35,38.549-128.167c0,0,3.398-31.466,45.951-37.038
		c0,0,42.982-8.148,85.969-2.963c0,0,45.207,2.222,58.547,47.409c0,0,20.997,48.542,5.432,106.32c0,0-130.948-15.044-204.317,5.696
		L274.7,300.99z"/>
	<path fill="#050608" d="M287.05,300.99c0,0,8.485-60.015,138.228-60.015c0,0,54.279,2.584,64.558,41.48
		C489.835,282.456,359.309,282.102,287.05,300.99z"/>
	<path fill="#679B54" d="M231.859,376.905c0,0-29.288-86.655,53.23-94.449c0,0,3.848,12.41-29.764,40.423
		C255.326,322.879,241.46,331.361,231.859,376.905z"/>
	<path fill="#81B770" d="M268.227,311c0,0,3.5-15.937,14.478-26.145c13.42-12.48,25.842-84.988,25.842-84.988
		c2.639-24.353,6.778-34.481,6.778-34.481C332.273,308.884,268.227,311,268.227,311"/>
</g>
<g id="tête">
	<path fill="none" stroke="#000000" stroke-width="2.2223" stroke-miterlimit="10" d="M229.978,537.105"/>
	<path fill="#F0ECE3" stroke="#1E1D1D" stroke-width="1.1111" stroke-miterlimit="10" d="M395.535,653.773
		c0,0,76.113,8.332,143.337-25.002c58.574-29.045,63.334-91.666,63.334-91.666c13.89-110.002-6.667-175.559-6.667-175.559
		c-10-42.778-47.778-60.001-47.778-60.001c-30-21.112-118.892-26.667-118.892-26.667c-105.557-2.223-153.335,31.111-153.335,31.111
		c-36.667,22.778-41.112,58.89-41.112,58.89s-19.444,75.557-4.444,172.226c0,0,8.333,53.889,48.89,79.443
		C278.868,616.549,331.09,651.551,395.535,653.773z"/>
	<g>
		<path d="M270.534,408.768c0,0,5.453-3.541,13.631-8.854c2.023-1.324,4.216-2.758,6.534-4.275c2.328-1.491,4.723-3.151,7.235-4.8
			c1.234-0.86,2.502-1.71,3.785-2.571c1.287-0.855,2.54-1.79,3.844-2.67c2.605-1.771,5.158-3.685,7.762-5.53
			c1.274-0.958,2.548-1.915,3.817-2.868l1.901-1.425c0.618-0.489,1.235-0.977,1.849-1.462c1.232-0.968,2.455-1.928,3.662-2.877
			c1.178-0.982,2.342-1.953,3.486-2.907c0.576-0.476,1.146-0.947,1.711-1.414c0.545-0.488,1.084-0.971,1.618-1.448
			c1.079-0.949,2.134-1.878,3.162-2.782l0.53-0.465c0.163-0.123,0.413-0.318,0.576-0.42c0.352-0.239,0.701-0.447,1.048-0.639
			c0.696-0.385,1.39-0.711,2.093-0.973c1.405-0.511,2.79-0.89,4.141-1.031c2.697-0.352,5.142-0.013,7.176,0.492
			c1.011,0.298,1.956,0.53,2.768,0.929c0.409,0.176,0.802,0.345,1.177,0.506c0.369,0.169,0.702,0.375,1.025,0.544
			c1.308,0.656,2.22,1.353,2.85,1.8c0.621,0.454,0.952,0.695,0.952,0.695s-0.392-0.124-1.127-0.354
			c-0.361-0.118-0.806-0.264-1.329-0.436c-0.522-0.167-1.147-0.283-1.818-0.466c-0.34-0.079-0.688-0.187-1.066-0.252
			c-0.377-0.057-0.772-0.115-1.184-0.177c-0.813-0.15-1.698-0.205-2.629-0.267c-1.864-0.048-3.939,0.128-6.013,0.769
			c-1.042,0.295-2.067,0.755-3.053,1.305c-0.489,0.283-0.973,0.585-1.421,0.923c-0.227,0.168-0.442,0.341-0.637,0.519
			c-0.115,0.098-0.127,0.127-0.231,0.225l-0.046,0.046c-0.131,0.126,0.152-0.147,0.115-0.109l-0.022,0.024l-0.088,0.099
			l-0.176,0.199c-0.954,1.054-1.934,2.136-2.936,3.243c-0.506,0.55-1.019,1.106-1.535,1.667c-0.543,0.533-1.091,1.07-1.644,1.613
			c-1.119,1.073-2.256,2.164-3.408,3.268c-1.174,1.077-2.408,2.112-3.645,3.166c-2.43,2.168-5.112,4.081-7.708,6.114
			c-2.705,1.873-5.357,3.83-8.114,5.523c-2.706,1.774-5.459,3.369-8.13,4.895c-1.339,0.756-2.673,1.468-3.983,2.155
			c-1.307,0.693-2.587,1.365-3.862,1.966c-2.521,1.253-4.951,2.345-7.202,3.326c-2.262,0.961-4.353,1.799-6.229,2.486
			c-1.857,0.726-3.521,1.257-4.88,1.712c-1.361,0.452-2.452,0.749-3.191,0.962C270.935,408.677,270.534,408.768,270.534,408.768z"/>
	</g>
	<g>
		<path d="M456.648,393.213c1.419-0.938,2.846-1.856,4.293-2.732l2.165-1.325c0.722-0.443,1.456-0.857,2.184-1.287
			c1.461-0.845,2.91-1.717,4.381-2.542c1.467-0.831,2.938-1.655,4.417-2.46l-0.353,0.204c0.149-0.104,0.317-0.211,0.47-0.294
			l0.323-0.152c0.214-0.093,0.449-0.208,0.653-0.268c0.401-0.111,0.812-0.213,1.226-0.305c0.389-0.042,0.771-0.057,1.162-0.078
			c0.394-0.025,0.782-0.034,1.129,0.028l1.082,0.138c0.361,0.048,0.732,0.091,1.046,0.204c0.656,0.191,1.316,0.389,1.974,0.604
			c0.344,0.09,0.61,0.258,0.915,0.39l0.89,0.422l0.891,0.428c0.292,0.147,0.61,0.275,0.864,0.455
			c1.075,0.673,2.136,1.377,3.206,2.075l-0.532-0.332c1.334,0.542,2.808,1.12,4.245,1.648c1.437,0.556,2.919,1.025,4.369,1.559
			c1.475,0.482,2.931,1.008,4.419,1.455c1.481,0.461,2.946,0.971,4.443,1.388c1.496,0.417,2.968,0.914,4.471,1.308l4.495,1.234
			l4.517,1.16l4.541,1.081c1.513,0.37,3.033,0.704,4.559,1.019c1.527,0.301,3.043,0.694,4.578,0.969
			c1.533,0.279,3.066,0.581,4.602,0.888c1.532,0.328,3.081,0.529,4.625,0.811c1.547,0.234,3.088,0.594,4.646,0.783l4.673,0.719
			c1.562,0.256,3.128,0.455,4.701,0.658c1.572,0.195,3.149,0.444,4.734,0.703c-1.577,0.233-3.163,0.455-4.753,0.625
			c-1.589,0.172-3.187,0.396-4.781,0.427l-4.802,0.222c-1.604,0.064-3.203,0.004-4.807-0.02c-1.602-0.053-3.216-0.021-4.812-0.171
			c-1.6-0.11-3.201-0.226-4.803-0.364c-1.604-0.119-3.191-0.355-4.786-0.554c-1.594-0.206-3.192-0.396-4.77-0.702
			c-1.581-0.287-3.172-0.537-4.748-0.855l-4.712-1.037c-1.569-0.355-3.115-0.805-4.675-1.203c-1.562-0.386-3.096-0.884-4.637-1.348
			c-1.544-0.453-3.064-0.992-4.593-1.499c-1.525-0.517-3.026-1.116-4.54-1.67c-1.504-0.594-2.995-1.205-4.479-1.864
			c-1.501-0.64-2.931-1.321-4.467-2.107l-0.3-0.153l-0.232-0.179c-0.85-0.653-1.707-1.3-2.552-1.978
			c-0.208-0.186-0.434-0.292-0.652-0.432l-0.661-0.402l-0.662-0.408c-0.222-0.125-0.441-0.304-0.666-0.375
			c-0.447-0.184-0.891-0.385-1.338-0.592c-0.228-0.125-0.44-0.163-0.656-0.218l-0.65-0.176c-0.228-0.083-0.425-0.094-0.619-0.102
			l-0.597-0.06c-0.162,0.021-0.328,0.031-0.501,0.032c-0.083,0.003-0.111,0.026-0.174,0.03l-0.087,0.007
			c0.023-0.015,0.065-0.045,0.088-0.078l-0.354,0.205c-1.576,0.594-3.161,1.169-4.749,1.737c-1.585,0.575-3.191,1.103-4.786,1.656
			c-0.801,0.27-1.594,0.556-2.4,0.812l-2.418,0.773C459.913,392.271,458.285,392.751,456.648,393.213z"/>
	</g>
	<g>
		<path d="M348.313,329.324c0,0,0.176,0.305,0.536,0.856c0.352,0.557,0.904,1.35,1.602,2.357c0.696,1.009,1.594,2.197,2.645,3.537
			c1.08,1.319,2.299,2.802,3.707,4.349c1.398,1.554,2.977,3.176,4.709,4.82c1.712,1.667,3.661,3.263,5.669,4.909
			c2.064,1.576,4.234,3.157,6.556,4.578c1.133,0.755,2.349,1.393,3.54,2.081c1.211,0.65,2.45,1.262,3.693,1.858
			c2.51,1.143,5.061,2.215,7.661,3.006c0.648,0.205,1.294,0.409,1.936,0.612c0.651,0.17,1.3,0.34,1.944,0.509
			c0.646,0.161,1.282,0.354,1.926,0.487c0.646,0.127,1.287,0.254,1.923,0.379c0.637,0.117,1.264,0.27,1.895,0.355
			c0.632,0.087,1.257,0.174,1.875,0.259c0.619,0.087,1.231,0.174,1.837,0.259c0.609,0.049,1.211,0.097,1.805,0.144
			c2.375,0.243,4.636,0.222,6.724,0.282c1.045-0.035,2.046-0.069,2.998-0.101c0.478-0.012,0.942-0.024,1.395-0.036
			c0.451-0.038,0.889-0.075,1.312-0.111c1.694-0.163,3.189-0.22,4.396-0.436c2.428-0.343,3.83-0.511,3.83-0.511
			s-1.356,0.359-3.757,0.937c-1.193,0.325-2.68,0.516-4.374,0.832c-1.691,0.355-3.636,0.466-5.75,0.701
			c-2.122,0.083-4.432,0.25-6.873,0.099c-0.61-0.021-1.23-0.042-1.857-0.063c-0.625-0.059-1.257-0.118-1.896-0.178
			c-1.282-0.108-2.588-0.257-3.901-0.507c-0.659-0.111-1.324-0.224-1.994-0.337c-0.669-0.12-1.33-0.298-2.002-0.447
			c-0.672-0.156-1.347-0.313-2.025-0.471c-0.666-0.203-1.336-0.408-2.008-0.613c-2.698-0.796-5.352-1.875-7.959-3.042
			c-1.282-0.627-2.558-1.273-3.804-1.957c-1.225-0.722-2.473-1.394-3.636-2.183c-2.393-1.476-4.555-3.206-6.637-4.872
			c-2.03-1.731-3.934-3.473-5.605-5.253c-0.863-0.862-1.635-1.766-2.407-2.612c-0.728-0.887-1.463-1.714-2.107-2.561
			c-1.341-1.647-2.438-3.26-3.402-4.685c-0.939-1.444-1.734-2.716-2.342-3.79c-0.624-1.065-1.05-1.938-1.343-2.529
			C348.452,329.647,348.313,329.324,348.313,329.324z"/>
	</g>
	<g>
		<path d="M398.869,339.324c1.765,3.129,4.003,5.955,6.373,8.631c2.387,2.666,4.97,5.151,7.725,7.427
			c0.682,0.577,1.404,1.104,2.104,1.658c0.699,0.556,1.409,1.096,2.151,1.594l2.193,1.533l2.268,1.422
			c1.49,0.982,3.087,1.785,4.632,2.671c1.558,0.867,3.191,1.589,4.781,2.391c1.63,0.721,3.281,1.394,4.92,2.091l5.034,1.793
			l5.128,1.507c1.729,0.432,3.469,0.817,5.201,1.228c3.495,0.684,7,1.34,10.549,1.691l2.652,0.313
			c0.885,0.101,1.778,0.125,2.665,0.198c1.779,0.11,3.554,0.275,5.334,0.34c3.565,0.047,7.13,0.183,10.694-0.021l2.674-0.094
			c0.892-0.021,1.782-0.062,2.67-0.154l5.334-0.452c1.781-0.113,3.547-0.392,5.316-0.62l5.309-0.706
			c3.512-0.652,7.04-1.21,10.536-1.944l5.229-1.176c1.742-0.396,3.491-0.757,5.211-1.25l5.186-1.362
			c1.729-0.457,3.465-0.883,5.167-1.434c3.413-1.064,6.855-2.04,10.248-3.176l10.144-3.512l-0.637,0.721
			c-0.008-0.009-0.007-0.004-0.004-0.022l-0.011-0.145c-0.009-0.099-0.003-0.189-0.017-0.295l-0.149-0.683
			c-0.127-0.46-0.348-0.934-0.512-1.402c-0.499-0.913-0.938-1.857-1.6-2.713l-0.917-1.314c-0.329-0.425-0.695-0.828-1.04-1.244
			c-0.708-0.82-1.371-1.674-2.171-2.425l-2.307-2.323c-0.798-0.749-1.639-1.457-2.455-2.188c-0.832-0.715-1.623-1.475-2.488-2.155
			l-2.592-2.043l-2.588-2.051l-2.68-1.938l-2.681-1.939l-1.341-0.97l-1.38-0.916l-5.522-3.665c-1.819-1.253-3.748-2.343-5.618-3.521
			l-5.653-3.474l-5.757-3.304l-5.754-3.314l-5.826-3.188l-5.831-3.183c-1.935-1.081-3.912-2.079-5.88-3.095l-11.795-6.133
			l12.008,5.713c1.997,0.96,4.005,1.902,5.971,2.928l5.927,3.018l5.927,3.024l5.836,3.197l5.831,3.211l5.733,3.386
			c1.899,1.15,3.853,2.209,5.706,3.438l5.619,3.588l1.404,0.898l1.369,0.954l2.739,1.909l2.739,1.91l2.652,2.038l2.641,2.056
			c0.881,0.685,1.696,1.456,2.548,2.18c0.839,0.742,1.697,1.458,2.52,2.22l2.391,2.379c0.822,0.765,1.53,1.658,2.273,2.511
			c0.365,0.434,0.747,0.852,1.098,1.299l0.994,1.405c0.701,0.901,1.224,1.967,1.782,2.997c0.212,0.571,0.463,1.11,0.633,1.713
			c0.14,0.655,0.33,1.142,0.205,2.135l-0.064,0.52l-0.572,0.202l-10.187,3.593c-3.407,1.163-6.869,2.167-10.302,3.258
			c-1.711,0.564-3.459,1.005-5.199,1.476l-5.221,1.403c-1.734,0.491-3.504,0.842-5.265,1.233l-5.283,1.156
			c-3.532,0.72-7.102,1.265-10.651,1.902l-5.37,0.683c-1.79,0.22-3.575,0.49-5.379,0.595l-5.398,0.426
			c-0.898,0.087-1.801,0.124-2.704,0.141l-2.707,0.08c-3.609,0.186-7.224,0.028-10.835-0.042c-1.805-0.076-3.606-0.253-5.409-0.375
			c-0.9-0.076-1.804-0.115-2.7-0.235l-2.688-0.365c-3.592-0.42-7.141-1.146-10.673-1.903c-1.753-0.447-3.511-0.869-5.256-1.338
			l-5.177-1.62l-5.076-1.909c-1.651-0.736-3.313-1.447-4.952-2.208c-3.233-1.614-6.432-3.311-9.43-5.33l-2.252-1.503l-2.175-1.614
			c-0.734-0.525-1.437-1.091-2.127-1.672c-0.691-0.58-1.404-1.132-2.076-1.734c-2.714-2.375-5.244-4.955-7.568-7.704
			C402.637,345.454,400.52,342.516,398.869,339.324z"/>
	</g>
	<g>
		<path d="M498.872,294.323c1.333,0.199,2.663,0.429,3.988,0.687c1.322,0.268,2.642,0.552,3.955,0.862
			c1.32,0.288,2.624,0.639,3.936,0.964c1.312,0.324,2.609,0.705,3.909,1.076c1.305,0.36,2.581,0.804,3.875,1.203
			c1.294,0.396,2.568,0.85,3.842,1.309c1.277,0.448,2.55,0.914,3.803,1.429c1.254,0.512,2.53,0.973,3.768,1.528l3.713,1.665
			c1.23,0.572,2.431,1.209,3.648,1.811l1.817,0.922l1.774,1.004c1.175,0.686,2.378,1.324,3.521,2.064l3.422,2.234
			c1.157,0.72,2.203,1.607,3.311,2.403c1.097,0.812,2.197,1.62,3.197,2.558l3.075,2.714l1.77,1.562l-2.367,0.305
			c-2.18,0.281-4.324,0.493-6.49,0.667c-2.162,0.173-4.327,0.288-6.493,0.369c-1.082,0.051-2.165,0.077-3.249,0.094
			c-1.084,0.021-2.167,0.053-3.251,0.029c-1.084-0.018-2.168-0.008-3.251-0.048l-3.25-0.12c-1.083-0.052-2.164-0.136-3.246-0.209
			c-1.081-0.066-2.16-0.182-3.237-0.305c-1.077-0.132-2.158-0.206-3.229-0.385l-3.212-0.505c-1.067-0.191-2.125-0.44-3.186-0.657
			c-1.063-0.201-2.111-0.481-3.153-0.777c-1.038-0.31-2.103-0.514-3.111-0.919l-3.044-1.108l3.127,0.821
			c1.029,0.309,2.102,0.457,3.149,0.687c1.051,0.221,2.103,0.427,3.171,0.553c1.064,0.142,2.122,0.316,3.188,0.432l3.202,0.305
			c1.063,0.125,2.14,0.145,3.208,0.222c1.069,0.069,2.138,0.131,3.211,0.143l3.213,0.086l3.215,0.003
			c1.071,0.001,2.144-0.047,3.215-0.067c2.142-0.053,4.284-0.134,6.424-0.271c2.14-0.122,4.276-0.295,6.408-0.495
			c2.13-0.186,4.274-0.415,6.368-0.699l-0.598,1.867l-3.002-2.61c-0.975-0.899-2.051-1.68-3.109-2.483
			c-1.073-0.783-2.081-1.653-3.208-2.365l-3.328-2.206c-1.109-0.735-2.292-1.359-3.43-2.053l-1.719-1.023l-1.766-0.943
			c-1.184-0.617-2.35-1.27-3.549-1.858l-3.618-1.73c-1.201-0.59-2.444-1.089-3.665-1.639c-1.22-0.554-2.46-1.058-3.708-1.546
			c-1.246-0.49-2.479-1.021-3.742-1.47c-1.261-0.458-2.506-0.961-3.781-1.381c-1.273-0.419-2.528-0.905-3.809-1.31
			c-1.279-0.411-2.552-0.848-3.842-1.224c-1.285-0.397-2.577-0.771-3.875-1.126C501.48,295,500.183,294.641,498.872,294.323z"/>
	</g>
</g>
<g id="yeux">
	<path fill="#FEFEFE" stroke="#1E1D1D" stroke-width="2.2223" stroke-miterlimit="10" d="M442.199,465.481
		c0,0-25.552,86.503,37.782,102.12c0,0,63.942,8.041,76.694-76.506C556.676,491.096,534.974,476.637,442.199,465.481z"/>
	<g>
		<path d="M269.423,498.771c0,0,1.899-0.922,5.294-2.369c1.698-0.721,3.762-1.594,6.153-2.533c2.391-0.939,5.086-2.014,8.063-3.074
			c2.963-1.105,6.194-2.242,9.631-3.387c3.433-1.16,7.069-2.336,10.851-3.488c1.895-0.561,3.822-1.131,5.773-1.707
			c1.948-0.586,3.926-1.162,5.935-1.684c4.006-1.092,8.083-2.174,12.188-3.146c2.052-0.488,4.104-0.977,6.147-1.463
			c2.055-0.439,4.101-0.877,6.132-1.312c4.052-0.91,8.083-1.602,11.975-2.307c1.948-0.34,3.853-0.732,5.737-1.006
			c1.884-0.275,3.728-0.543,5.522-0.805c1.794-0.257,3.539-0.508,5.227-0.75c1.69-0.223,3.334-0.371,4.907-0.549
			c3.145-0.35,6.03-0.635,8.589-0.863c2.564-0.184,4.804-0.299,6.646-0.404c3.685-0.201,5.79-0.265,5.79-0.265
			s-2.066,0.449-5.684,1.144c-1.809,0.344-4.002,0.771-6.521,1.211c-2.51,0.513-5.337,1.111-8.427,1.699
			c-3.092,0.578-6.422,1.312-9.949,2.045c-1.762,0.369-3.573,0.748-5.423,1.135c-1.846,0.408-3.732,0.824-5.65,1.246
			c-1.917,0.422-3.867,0.852-5.841,1.285c-1.968,0.459-3.959,0.926-5.967,1.395c-2.009,0.461-4.034,0.926-6.067,1.395
			c-2.026,0.494-4.061,0.99-6.095,1.488c-4.082,0.941-8.134,2.002-12.139,2.99c-3.998,1.018-7.933,2.018-11.741,2.984
			c-3.801,1.006-7.475,1.977-10.958,2.896c-3.482,0.938-6.775,1.824-9.814,2.643C277.536,496.549,269.423,498.771,269.423,498.771z"
			/>
	</g>
	<g>
		<path d="M435.536,464.736c0,0,2.075,0.012,5.697,0.193c3.623,0.164,8.792,0.504,14.979,1.086c3.091,0.307,6.443,0.63,9.975,1.074
			c3.53,0.459,7.267,0.863,11.101,1.49c3.841,0.582,7.815,1.156,11.829,1.902c2.007,0.368,4.039,0.686,6.063,1.102
			c2.024,0.408,4.058,0.818,6.09,1.229c4.068,0.805,8.102,1.803,12.078,2.732c1.994,0.443,3.948,0.992,5.881,1.523
			c1.933,0.527,3.841,1.049,5.719,1.561c3.749,1.055,7.324,2.26,10.728,3.328c3.386,1.141,6.542,2.361,9.462,3.443
			c2.915,1.102,5.509,2.336,7.831,3.334c1.149,0.531,2.259,0.939,3.222,1.477c0.971,0.512,1.862,0.98,2.668,1.404
			c3.215,1.699,5.015,2.711,5.015,2.711s-1.976-0.664-5.369-1.9c-1.694-0.625-3.738-1.395-6.153-2.107
			c-1.197-0.375-2.472-0.773-3.814-1.193c-1.349-0.404-2.724-0.934-4.226-1.311c-2.97-0.83-6.188-1.729-9.59-2.68
			c-3.425-0.865-7.037-1.777-10.773-2.723c-3.76-0.863-7.628-1.797-11.582-2.668c-3.966-0.826-7.959-1.807-12.003-2.582
			c-4.027-0.846-8.056-1.684-12.037-2.449c-1.988-0.396-3.96-0.793-5.908-1.182c-1.952-0.373-3.881-0.74-5.778-1.102
			c-7.601-1.426-14.695-2.757-20.776-3.897c-6.096-1.13-11.175-2.071-14.73-2.729C437.57,465.123,435.536,464.736,435.536,464.736z"
			/>
	</g>
	<path fill="#FDFEFD" stroke="#1E1D1D" stroke-width="2.2223" stroke-miterlimit="10" d="M274.7,496.871
		c0,0,13.057,80.789,80.279,69.68c0,0,53.686-5.51,37.677-98.035C392.656,468.516,326.646,475.525,274.7,496.871z"/>
	<path fill="#000505" d="M385.146,544.98c0,0-26.833,7.125-23.499-46.209l18.889,2.777l-15-18.334c0,0,2.474-7.758,10.682-12.49
		l16.438-2.209C392.656,468.516,403.645,512.301,385.146,544.98z"/>
	<path fill="#000505" d="M534.115,483.215c0,0-6.355,4.445-9.688,15.557l14.444,8.135h-17.778c0,0-3.889,32.139,11.111,38.391
		c0,0,16.719-14.654,24.471-54.201C556.676,491.096,546.825,486.711,534.115,483.215z"/>
</g>
<g id="Bec">
	<path fill="#E6B129" stroke="#1E1D1D" stroke-width="1.1111" stroke-miterlimit="10" d="M548.316,572.104
		c9.637-17.775-7.223-13.332-7.223-13.332c-75.557,45.555-122.224-5.555-122.224-5.555
		c-50.001,52.777-121.113,11.111-121.113,11.111c-18.334-8.334-11.667,10.555-11.667,10.555s43.519,65.742,123.335,63.334
		C409.425,638.217,512.573,638.029,548.316,572.104z"/>
	<g>
		<path d="M299.61,577.664c7.584,4.732,15.111,9.551,22.662,14.334c7.555,4.775,15.043,9.654,22.567,14.475l0.033,0.021l0.087,0.076
			c0.115,0.102,0.297,0.254,0.47,0.369c0.171,0.129,0.36,0.238,0.544,0.354c0.38,0.213,0.77,0.414,1.182,0.568
			c0.405,0.164,0.828,0.291,1.256,0.391c0.427,0.109,0.865,0.16,1.302,0.217c0.441,0.014,0.881,0.062,1.325,0.023
			c0.443-0.004,0.885-0.062,1.326-0.129c0.443-0.047,0.875-0.188,1.313-0.275c0.433-0.121,0.859-0.273,1.289-0.408l0.072-0.021
			l0.001-0.002c3.852-1.021,7.705-1.865,11.586-2.654c1.943-0.369,3.881-0.768,5.829-1.113l5.847-1.016
			c3.911-0.59,7.818-1.219,11.748-1.68c3.92-0.545,7.864-0.885,11.801-1.293c1.969-0.197,3.946-0.295,5.92-0.447
			c1.976-0.117,3.946-0.328,5.927-0.369c3.957-0.131,7.914-0.344,11.877-0.254l5.941,0.041c1.979,0.053,3.959,0.184,5.938,0.273
			c1.978,0.121,3.961,0.143,5.934,0.348l5.918,0.586l2.959,0.293c0.984,0.115,1.961,0.295,2.942,0.439l5.879,0.916
			c1.97,0.246,3.891,0.77,5.833,1.178l5.809,1.301c3.643,0.951,7.595,0.934,11.266-0.01c1.838-0.479,3.613-1.197,5.263-2.148
			l5.122-2.959c3.403-1.988,6.794-3.998,10.168-6.035c3.363-2.053,6.753-4.066,10.088-6.166c3.348-2.08,6.656-4.223,9.916-6.436
			l2.428-1.684l2.388-1.74c1.578-1.178,3.106-2.42,4.509-3.811c-1.342,1.447-2.824,2.76-4.355,4.008l-2.322,1.84l-2.381,1.764
			c-3.196,2.32-6.442,4.57-9.729,6.758c-6.553,4.41-13.255,8.586-19.992,12.701l-5.065,3.059c-1.749,1.055-3.646,1.865-5.612,2.418
			c-3.942,1.088-8.134,1.195-12.145,0.236l-5.749-1.232c-1.921-0.391-3.817-0.896-5.769-1.127l-5.818-0.869
			c-0.971-0.137-1.937-0.309-2.911-0.416l-2.931-0.271l-5.861-0.541c-1.952-0.191-3.92-0.199-5.879-0.309
			c-1.962-0.074-3.921-0.191-5.884-0.232L425.576,601c-3.928-0.078-7.853,0.201-11.779,0.283c-1.965,0.027-3.923,0.225-5.885,0.328
			c-1.96,0.139-3.924,0.223-5.881,0.408c-3.912,0.379-7.832,0.691-11.731,1.211c-3.908,0.432-7.796,1.031-11.688,1.594l-5.818,0.973
			c-1.938,0.332-3.867,0.715-5.8,1.07c-3.849,0.777-7.724,1.531-11.516,2.463l0.073-0.023c-0.484,0.145-0.962,0.303-1.45,0.43
			c-0.499,0.094-0.985,0.236-1.495,0.283c-0.505,0.068-1.011,0.123-1.524,0.121c-0.51,0.031-1.024-0.029-1.535-0.061
			c-0.51-0.072-1.019-0.146-1.517-0.281c-0.499-0.125-0.991-0.285-1.466-0.488c-0.479-0.189-0.937-0.436-1.383-0.699
			c-0.219-0.141-0.44-0.277-0.649-0.439c-0.219-0.158-0.406-0.311-0.641-0.533l0.119,0.098c-7.413-4.992-14.864-9.926-22.247-14.965
			C314.375,587.742,306.964,582.746,299.61,577.664z"/>
	</g>
</g>
</svg>
