<?xml version="1.0" encoding="UTF-8"?>
<svg xmlns="http://www.w3.org/2000/svg" xmlns:xlink="http://www.w3.org/1999/xlink" width="70pt" height="70pt" viewBox="0 0 70 70" version="1.1">
<g id="surface1">
<path style=" stroke:none;fill-rule:nonzero;fill:rgb(25.098039%,42.745098%,20%);fill-opacity:1;" d="M 24.035156 26.335938 C 24.035156 26.335938 25.851562 25.167969 27.410156 15.121094 C 27.410156 15.121094 27.707031 12.367188 31.429688 11.882812 C 31.429688 11.882812 35.191406 11.167969 38.953125 11.621094 C 38.953125 11.621094 42.90625 11.816406 44.074219 15.769531 C 44.074219 15.769531 45.914062 20.019531 44.550781 25.074219 C 44.550781 25.074219 33.09375 23.757812 26.671875 25.570312 Z M 24.035156 26.335938 "/>
<path style=" stroke:none;fill-rule:nonzero;fill:rgb(1.960784%,2.352941%,3.137255%);fill-opacity:1;" d="M 25.117188 26.335938 C 25.117188 26.335938 25.859375 21.085938 37.210938 21.085938 C 37.210938 21.085938 41.960938 21.3125 42.859375 24.714844 C 42.859375 24.714844 31.441406 24.683594 25.117188 26.335938 Z M 25.117188 26.335938 "/>
<path style=" stroke:none;fill-rule:nonzero;fill:rgb(40.392157%,60.784314%,32.941176%);fill-opacity:1;" d="M 20.289062 32.980469 C 20.289062 32.980469 17.726562 25.398438 24.945312 24.714844 C 24.945312 24.714844 25.28125 25.800781 22.339844 28.25 C 22.339844 28.25 21.128906 28.992188 20.289062 32.980469 Z M 20.289062 32.980469 "/>
<path style=" stroke:none;fill-rule:nonzero;fill:rgb(50.588235%,71.764706%,43.921569%);fill-opacity:1;" d="M 23.46875 27.210938 C 23.46875 27.210938 23.777344 25.816406 24.738281 24.925781 C 25.910156 23.832031 26.996094 17.488281 26.996094 17.488281 C 27.230469 15.359375 27.589844 14.472656 27.589844 14.472656 C 29.074219 27.027344 23.46875 27.210938 23.46875 27.210938 "/>
<path style="fill-rule:nonzero;fill:rgb(94.117647%,92.54902%,89.019608%);fill-opacity:1;stroke-width:1.1111;stroke-linecap:butt;stroke-linejoin:miter;stroke:rgb(11.764706%,11.372549%,11.372549%);stroke-opacity:1;stroke-miterlimit:10;" d="M 395.535714 653.794643 C 395.535714 653.794643 471.651786 662.098214 538.883929 628.75 C 597.455357 599.732143 602.1875 537.098214 602.1875 537.098214 C 616.116071 427.098214 595.535714 361.5625 595.535714 361.5625 C 585.535714 318.75 547.767857 301.5625 547.767857 301.5625 C 517.767857 280.446429 428.883929 274.866071 428.883929 274.866071 C 323.303571 272.633929 275.535714 305.982143 275.535714 305.982143 C 238.883929 328.75 234.419643 364.866071 234.419643 364.866071 C 234.419643 364.866071 215 440.446429 230 537.098214 C 230 537.098214 238.303571 590.982143 278.883929 616.5625 C 278.883929 616.5625 331.071429 651.5625 395.535714 653.794643 Z M 395.535714 653.794643 " transform="matrix(0.0875,0,0,0.0875,0,0)"/>
<path style=" stroke:none;fill-rule:nonzero;fill:rgb(0%,0%,0%);fill-opacity:1;" d="M 23.671875 35.765625 C 23.671875 35.765625 24.148438 35.457031 24.863281 34.992188 C 25.042969 34.875 25.234375 34.75 25.4375 34.617188 C 25.640625 34.488281 25.847656 34.34375 26.070312 34.199219 C 26.175781 34.125 26.289062 34.046875 26.402344 33.972656 C 26.511719 33.898438 26.621094 33.816406 26.738281 33.738281 C 26.964844 33.585938 27.1875 33.417969 27.414062 33.257812 C 27.527344 33.171875 27.640625 33.089844 27.75 33.003906 L 27.917969 32.878906 C 27.96875 32.835938 28.023438 32.792969 28.078125 32.753906 C 28.1875 32.667969 28.292969 32.582031 28.398438 32.5 C 28.5 32.414062 28.601562 32.328125 28.703125 32.246094 C 28.753906 32.203125 28.804688 32.164062 28.851562 32.121094 C 28.902344 32.078125 28.949219 32.039062 28.996094 31.996094 C 29.089844 31.914062 29.179688 31.832031 29.269531 31.753906 L 29.316406 31.710938 C 29.332031 31.699219 29.355469 31.683594 29.367188 31.675781 C 29.398438 31.652344 29.429688 31.636719 29.460938 31.617188 C 29.519531 31.585938 29.582031 31.558594 29.644531 31.535156 C 29.765625 31.488281 29.886719 31.457031 30.003906 31.445312 C 30.242188 31.414062 30.457031 31.441406 30.632812 31.488281 C 30.722656 31.511719 30.804688 31.53125 30.875 31.566406 C 30.910156 31.582031 30.945312 31.597656 30.976562 31.613281 C 31.011719 31.628906 31.039062 31.644531 31.066406 31.660156 C 31.183594 31.71875 31.261719 31.777344 31.316406 31.816406 C 31.371094 31.855469 31.402344 31.878906 31.402344 31.878906 C 31.402344 31.878906 31.367188 31.867188 31.300781 31.847656 C 31.269531 31.835938 31.230469 31.824219 31.1875 31.808594 C 31.140625 31.792969 31.085938 31.785156 31.027344 31.769531 C 30.996094 31.761719 30.964844 31.753906 30.933594 31.746094 C 30.902344 31.742188 30.867188 31.734375 30.828125 31.730469 C 30.757812 31.71875 30.679688 31.710938 30.601562 31.707031 C 30.4375 31.703125 30.253906 31.71875 30.074219 31.773438 C 29.984375 31.800781 29.894531 31.839844 29.808594 31.890625 C 29.765625 31.914062 29.722656 31.941406 29.683594 31.96875 C 29.664062 31.984375 29.644531 32 29.625 32.015625 C 29.617188 32.023438 29.617188 32.027344 29.605469 32.035156 L 29.601562 32.039062 C 29.589844 32.050781 29.617188 32.027344 29.613281 32.027344 L 29.601562 32.039062 L 29.585938 32.058594 C 29.503906 32.148438 29.417969 32.246094 29.332031 32.339844 C 29.285156 32.390625 29.242188 32.4375 29.195312 32.488281 C 29.148438 32.535156 29.101562 32.582031 29.050781 32.628906 C 28.953125 32.722656 28.855469 32.816406 28.753906 32.914062 C 28.652344 33.007812 28.542969 33.097656 28.433594 33.191406 C 28.222656 33.382812 27.988281 33.546875 27.761719 33.726562 C 27.523438 33.890625 27.292969 34.0625 27.050781 34.210938 C 26.8125 34.363281 26.574219 34.503906 26.339844 34.636719 C 26.222656 34.703125 26.105469 34.765625 25.992188 34.828125 C 25.875 34.886719 25.765625 34.945312 25.652344 35 C 25.433594 35.109375 25.21875 35.203125 25.023438 35.289062 C 24.824219 35.375 24.640625 35.445312 24.476562 35.507812 C 24.316406 35.570312 24.167969 35.617188 24.050781 35.65625 C 23.933594 35.695312 23.835938 35.722656 23.773438 35.742188 C 23.707031 35.757812 23.671875 35.765625 23.671875 35.765625 Z M 23.671875 35.765625 "/>
<path style=" stroke:none;fill-rule:nonzero;fill:rgb(0%,0%,0%);fill-opacity:1;" d="M 39.957031 34.40625 C 40.082031 34.324219 40.207031 34.242188 40.332031 34.167969 L 40.523438 34.050781 C 40.585938 34.011719 40.648438 33.976562 40.710938 33.9375 C 40.839844 33.863281 40.96875 33.789062 41.097656 33.714844 C 41.222656 33.644531 41.351562 33.570312 41.484375 33.5 L 41.453125 33.519531 C 41.464844 33.507812 41.480469 33.5 41.492188 33.492188 L 41.519531 33.480469 C 41.539062 33.472656 41.558594 33.460938 41.578125 33.457031 C 41.613281 33.445312 41.648438 33.4375 41.6875 33.429688 C 41.71875 33.425781 41.753906 33.425781 41.789062 33.421875 C 41.820312 33.421875 41.855469 33.417969 41.886719 33.425781 L 41.980469 33.4375 C 42.011719 33.441406 42.042969 33.445312 42.074219 33.457031 C 42.128906 33.472656 42.1875 33.488281 42.246094 33.507812 C 42.273438 33.515625 42.296875 33.53125 42.324219 33.542969 L 42.402344 33.578125 L 42.480469 33.617188 C 42.507812 33.628906 42.535156 33.640625 42.554688 33.65625 C 42.652344 33.714844 42.742188 33.777344 42.835938 33.835938 L 42.789062 33.808594 C 42.90625 33.855469 43.035156 33.90625 43.160156 33.953125 C 43.289062 34 43.417969 34.042969 43.542969 34.089844 C 43.671875 34.132812 43.800781 34.175781 43.929688 34.214844 C 44.058594 34.257812 44.1875 34.300781 44.320312 34.339844 C 44.449219 34.375 44.578125 34.417969 44.710938 34.453125 L 45.105469 34.5625 L 45.5 34.660156 L 45.898438 34.757812 C 46.027344 34.789062 46.164062 34.816406 46.296875 34.847656 C 46.429688 34.871094 46.5625 34.90625 46.695312 34.929688 C 46.832031 34.953125 46.964844 34.980469 47.097656 35.007812 C 47.234375 35.035156 47.367188 35.054688 47.503906 35.078125 C 47.640625 35.101562 47.773438 35.132812 47.910156 35.148438 L 48.320312 35.210938 C 48.457031 35.234375 48.59375 35.25 48.730469 35.269531 C 48.867188 35.285156 49.007812 35.308594 49.144531 35.328125 C 49.007812 35.351562 48.867188 35.371094 48.730469 35.382812 C 48.589844 35.398438 48.449219 35.417969 48.308594 35.421875 L 47.890625 35.441406 C 47.75 35.445312 47.609375 35.441406 47.46875 35.441406 C 47.328125 35.433594 47.1875 35.4375 47.046875 35.425781 C 46.910156 35.414062 46.769531 35.40625 46.628906 35.394531 C 46.488281 35.382812 46.347656 35.363281 46.210938 35.34375 C 46.070312 35.328125 45.929688 35.308594 45.792969 35.28125 C 45.652344 35.257812 45.515625 35.234375 45.375 35.207031 L 44.964844 35.117188 C 44.828125 35.085938 44.691406 35.046875 44.554688 35.011719 C 44.417969 34.976562 44.285156 34.933594 44.148438 34.894531 C 44.015625 34.855469 43.882812 34.808594 43.746094 34.761719 C 43.613281 34.71875 43.484375 34.664062 43.351562 34.617188 C 43.21875 34.566406 43.089844 34.511719 42.957031 34.453125 C 42.828125 34.398438 42.703125 34.339844 42.566406 34.269531 L 42.542969 34.257812 L 42.519531 34.242188 C 42.445312 34.183594 42.371094 34.125 42.296875 34.066406 C 42.28125 34.050781 42.261719 34.042969 42.242188 34.03125 L 42.183594 33.996094 L 42.125 33.957031 C 42.105469 33.949219 42.085938 33.933594 42.066406 33.925781 C 42.027344 33.910156 41.988281 33.890625 41.949219 33.875 C 41.929688 33.863281 41.910156 33.859375 41.890625 33.855469 L 41.835938 33.839844 C 41.816406 33.832031 41.796875 33.832031 41.78125 33.832031 L 41.730469 33.824219 C 41.714844 33.828125 41.699219 33.828125 41.683594 33.828125 C 41.679688 33.828125 41.675781 33.832031 41.667969 33.832031 L 41.664062 33.832031 C 41.664062 33.828125 41.667969 33.828125 41.671875 33.824219 L 41.640625 33.84375 C 41.5 33.894531 41.363281 33.945312 41.222656 33.996094 C 41.085938 34.042969 40.945312 34.089844 40.804688 34.140625 C 40.734375 34.164062 40.664062 34.1875 40.59375 34.210938 L 40.382812 34.277344 C 40.242188 34.324219 40.101562 34.367188 39.957031 34.40625 Z M 39.957031 34.40625 "/>
<path style=" stroke:none;fill-rule:nonzero;fill:rgb(0%,0%,0%);fill-opacity:1;" d="M 30.476562 28.816406 C 30.476562 28.816406 30.492188 28.84375 30.523438 28.890625 C 30.554688 28.941406 30.601562 29.007812 30.664062 29.097656 C 30.726562 29.183594 30.804688 29.289062 30.894531 29.40625 C 30.992188 29.523438 31.097656 29.652344 31.21875 29.785156 C 31.34375 29.921875 31.480469 30.066406 31.632812 30.207031 C 31.78125 30.355469 31.953125 30.496094 32.128906 30.636719 C 32.308594 30.777344 32.5 30.914062 32.703125 31.039062 C 32.800781 31.105469 32.90625 31.160156 33.011719 31.222656 C 33.117188 31.277344 33.226562 31.332031 33.335938 31.382812 C 33.554688 31.484375 33.777344 31.578125 34.003906 31.648438 C 34.0625 31.664062 34.117188 31.683594 34.175781 31.699219 C 34.230469 31.714844 34.289062 31.730469 34.34375 31.746094 C 34.402344 31.757812 34.457031 31.777344 34.511719 31.789062 C 34.570312 31.796875 34.625 31.808594 34.679688 31.820312 C 34.738281 31.832031 34.792969 31.84375 34.847656 31.851562 C 34.902344 31.859375 34.957031 31.867188 35.011719 31.875 C 35.066406 31.882812 35.117188 31.890625 35.171875 31.898438 C 35.226562 31.902344 35.277344 31.90625 35.328125 31.910156 C 35.539062 31.929688 35.734375 31.929688 35.917969 31.933594 C 36.011719 31.929688 36.097656 31.929688 36.179688 31.925781 C 36.222656 31.925781 36.261719 31.921875 36.304688 31.921875 C 36.34375 31.917969 36.378906 31.914062 36.417969 31.914062 C 36.566406 31.898438 36.695312 31.894531 36.800781 31.875 C 37.015625 31.84375 37.136719 31.828125 37.136719 31.828125 C 37.136719 31.828125 37.019531 31.859375 36.808594 31.910156 C 36.703125 31.941406 36.574219 31.957031 36.425781 31.984375 C 36.277344 32.015625 36.109375 32.023438 35.921875 32.046875 C 35.738281 32.054688 35.535156 32.066406 35.320312 32.054688 C 35.269531 32.050781 35.214844 32.050781 35.160156 32.046875 C 35.105469 32.042969 35.050781 32.039062 34.992188 32.035156 C 34.878906 32.023438 34.765625 32.011719 34.652344 31.988281 C 34.59375 31.980469 34.535156 31.96875 34.476562 31.960938 C 34.417969 31.949219 34.359375 31.933594 34.300781 31.921875 C 34.242188 31.90625 34.183594 31.894531 34.125 31.878906 C 34.066406 31.859375 34.007812 31.84375 33.949219 31.824219 C 33.714844 31.753906 33.480469 31.660156 33.253906 31.558594 C 33.140625 31.503906 33.027344 31.449219 32.917969 31.386719 C 32.8125 31.324219 32.703125 31.265625 32.601562 31.195312 C 32.390625 31.066406 32.203125 30.917969 32.019531 30.769531 C 31.84375 30.621094 31.675781 30.46875 31.53125 30.3125 C 31.453125 30.234375 31.386719 30.15625 31.320312 30.082031 C 31.257812 30.003906 31.191406 29.933594 31.136719 29.859375 C 31.019531 29.714844 30.921875 29.574219 30.835938 29.449219 C 30.753906 29.320312 30.6875 29.210938 30.632812 29.117188 C 30.578125 29.023438 30.542969 28.949219 30.515625 28.894531 C 30.488281 28.84375 30.476562 28.816406 30.476562 28.816406 Z M 30.476562 28.816406 "/>
<path style=" stroke:none;fill-rule:nonzero;fill:rgb(0%,0%,0%);fill-opacity:1;" d="M 34.902344 29.691406 C 35.054688 29.964844 35.25 30.210938 35.457031 30.445312 C 35.667969 30.679688 35.894531 30.898438 36.132812 31.097656 C 36.195312 31.144531 36.257812 31.191406 36.320312 31.242188 C 36.378906 31.289062 36.441406 31.335938 36.507812 31.378906 L 36.699219 31.515625 L 36.898438 31.640625 C 37.027344 31.726562 37.167969 31.796875 37.300781 31.871094 C 37.4375 31.949219 37.582031 32.011719 37.722656 32.082031 C 37.863281 32.144531 38.007812 32.203125 38.152344 32.265625 L 38.59375 32.421875 L 39.039062 32.554688 C 39.191406 32.589844 39.34375 32.625 39.496094 32.660156 C 39.800781 32.722656 40.109375 32.777344 40.417969 32.808594 L 40.652344 32.835938 C 40.726562 32.84375 40.804688 32.847656 40.882812 32.855469 C 41.039062 32.863281 41.195312 32.878906 41.351562 32.882812 C 41.664062 32.886719 41.972656 32.898438 42.285156 32.882812 L 42.519531 32.875 C 42.597656 32.871094 42.675781 32.867188 42.753906 32.859375 L 43.222656 32.820312 C 43.375 32.8125 43.53125 32.785156 43.6875 32.765625 L 44.152344 32.703125 C 44.457031 32.648438 44.765625 32.597656 45.074219 32.535156 L 45.53125 32.429688 C 45.683594 32.398438 45.835938 32.363281 45.984375 32.320312 L 46.441406 32.203125 C 46.589844 32.164062 46.742188 32.125 46.890625 32.078125 C 47.191406 31.984375 47.492188 31.898438 47.789062 31.800781 L 48.675781 31.492188 L 48.621094 31.554688 L 48.617188 31.539062 C 48.617188 31.53125 48.617188 31.523438 48.617188 31.515625 L 48.605469 31.457031 C 48.59375 31.414062 48.574219 31.375 48.558594 31.332031 C 48.515625 31.253906 48.476562 31.171875 48.417969 31.09375 L 48.339844 30.980469 C 48.3125 30.941406 48.277344 30.90625 48.25 30.871094 C 48.1875 30.800781 48.128906 30.726562 48.058594 30.660156 L 47.855469 30.457031 C 47.785156 30.390625 47.714844 30.328125 47.640625 30.265625 C 47.570312 30.203125 47.5 30.136719 47.425781 30.074219 L 47.195312 29.898438 L 46.972656 29.71875 L 46.734375 29.546875 L 46.5 29.378906 L 46.382812 29.292969 L 46.261719 29.214844 L 45.78125 28.894531 C 45.621094 28.78125 45.453125 28.6875 45.289062 28.585938 L 44.792969 28.28125 L 43.785156 27.703125 L 43.277344 27.421875 L 42.765625 27.144531 C 42.597656 27.050781 42.425781 26.960938 42.253906 26.875 L 41.21875 26.335938 L 42.269531 26.835938 C 42.445312 26.921875 42.621094 27.003906 42.792969 27.09375 L 43.3125 27.355469 L 43.832031 27.621094 L 44.339844 27.902344 L 44.851562 28.183594 L 45.351562 28.476562 C 45.519531 28.578125 45.691406 28.671875 45.851562 28.777344 L 46.34375 29.09375 L 46.46875 29.171875 L 46.585938 29.253906 L 46.828125 29.421875 L 47.066406 29.589844 L 47.296875 29.769531 L 47.53125 29.949219 C 47.605469 30.007812 47.679688 30.074219 47.753906 30.136719 C 47.824219 30.203125 47.902344 30.265625 47.972656 30.332031 L 48.183594 30.539062 C 48.253906 30.609375 48.316406 30.6875 48.382812 30.761719 C 48.414062 30.796875 48.445312 30.835938 48.476562 30.875 L 48.5625 30.996094 C 48.625 31.074219 48.671875 31.167969 48.71875 31.257812 C 48.738281 31.308594 48.761719 31.355469 48.773438 31.410156 C 48.789062 31.464844 48.804688 31.507812 48.792969 31.597656 L 48.789062 31.640625 L 48.738281 31.660156 L 47.847656 31.972656 C 47.546875 32.074219 47.246094 32.164062 46.945312 32.257812 C 46.796875 32.308594 46.640625 32.347656 46.488281 32.386719 L 46.03125 32.511719 C 45.882812 32.554688 45.726562 32.585938 45.574219 32.617188 L 45.109375 32.71875 C 44.800781 32.78125 44.488281 32.832031 44.179688 32.886719 L 43.707031 32.945312 C 43.550781 32.964844 43.394531 32.988281 43.238281 32.996094 L 42.765625 33.035156 C 42.6875 33.042969 42.609375 33.046875 42.527344 33.046875 L 42.292969 33.054688 C 41.976562 33.070312 41.660156 33.058594 41.34375 33.050781 C 41.1875 33.042969 41.027344 33.027344 40.871094 33.019531 C 40.792969 33.011719 40.710938 33.007812 40.632812 32.996094 L 40.398438 32.964844 C 40.085938 32.929688 39.773438 32.863281 39.464844 32.800781 C 39.3125 32.757812 39.15625 32.722656 39.003906 32.683594 L 38.550781 32.539062 L 38.109375 32.371094 C 37.964844 32.308594 37.816406 32.246094 37.675781 32.179688 C 37.390625 32.039062 37.113281 31.890625 36.851562 31.714844 L 36.652344 31.582031 L 36.460938 31.441406 C 36.398438 31.394531 36.335938 31.34375 36.277344 31.292969 C 36.214844 31.242188 36.152344 31.195312 36.09375 31.144531 C 35.855469 30.933594 35.636719 30.710938 35.433594 30.46875 C 35.230469 30.226562 35.046875 29.96875 34.902344 29.691406 Z M 34.902344 29.691406 "/>
<path style=" stroke:none;fill-rule:nonzero;fill:rgb(0%,0%,0%);fill-opacity:1;" d="M 43.652344 25.753906 C 43.769531 25.769531 43.882812 25.789062 44 25.8125 C 44.117188 25.835938 44.230469 25.863281 44.347656 25.890625 C 44.460938 25.914062 44.574219 25.945312 44.691406 25.972656 C 44.804688 26 44.917969 26.035156 45.03125 26.066406 C 45.148438 26.097656 45.257812 26.136719 45.371094 26.171875 C 45.484375 26.207031 45.597656 26.246094 45.707031 26.285156 C 45.820312 26.328125 45.929688 26.367188 46.039062 26.414062 C 46.152344 26.457031 46.261719 26.496094 46.371094 26.546875 L 46.695312 26.691406 C 46.804688 26.742188 46.90625 26.796875 47.015625 26.851562 L 47.171875 26.929688 L 47.328125 27.019531 C 47.429688 27.078125 47.535156 27.132812 47.636719 27.199219 L 47.9375 27.394531 C 48.039062 27.457031 48.128906 27.535156 48.226562 27.605469 C 48.320312 27.675781 48.417969 27.746094 48.503906 27.828125 L 48.773438 28.066406 L 48.929688 28.203125 L 48.722656 28.230469 C 48.53125 28.253906 48.34375 28.273438 48.15625 28.289062 C 47.964844 28.304688 47.777344 28.3125 47.585938 28.320312 C 47.492188 28.324219 47.398438 28.328125 47.300781 28.328125 C 47.207031 28.332031 47.113281 28.332031 47.019531 28.332031 C 46.921875 28.328125 46.828125 28.332031 46.734375 28.328125 L 46.449219 28.316406 C 46.355469 28.3125 46.257812 28.304688 46.164062 28.296875 C 46.070312 28.292969 45.976562 28.28125 45.882812 28.269531 C 45.789062 28.257812 45.691406 28.253906 45.597656 28.238281 L 45.316406 28.195312 C 45.226562 28.175781 45.132812 28.15625 45.039062 28.136719 C 44.945312 28.117188 44.855469 28.09375 44.761719 28.066406 C 44.671875 28.039062 44.578125 28.023438 44.492188 27.988281 L 44.226562 27.890625 L 44.5 27.960938 C 44.589844 27.988281 44.683594 28.003906 44.773438 28.023438 C 44.867188 28.042969 44.957031 28.058594 45.050781 28.070312 C 45.144531 28.082031 45.238281 28.097656 45.332031 28.109375 L 45.609375 28.136719 C 45.703125 28.144531 45.796875 28.148438 45.890625 28.15625 C 45.984375 28.160156 46.078125 28.167969 46.171875 28.167969 L 46.453125 28.175781 L 46.734375 28.175781 C 46.828125 28.175781 46.921875 28.171875 47.015625 28.167969 C 47.203125 28.164062 47.390625 28.15625 47.578125 28.144531 C 47.765625 28.136719 47.953125 28.121094 48.140625 28.101562 C 48.324219 28.085938 48.511719 28.066406 48.695312 28.042969 L 48.644531 28.203125 L 48.382812 27.976562 C 48.296875 27.898438 48.203125 27.828125 48.109375 27.757812 C 48.015625 27.691406 47.925781 27.613281 47.828125 27.550781 L 47.535156 27.359375 C 47.441406 27.292969 47.335938 27.238281 47.238281 27.179688 L 47.085938 27.089844 L 46.933594 27.007812 C 46.828125 26.953125 46.726562 26.894531 46.621094 26.84375 L 46.304688 26.691406 C 46.199219 26.640625 46.089844 26.597656 45.984375 26.550781 C 45.878906 26.5 45.769531 26.457031 45.660156 26.414062 C 45.550781 26.371094 45.441406 26.324219 45.332031 26.285156 C 45.222656 26.246094 45.113281 26.203125 45 26.164062 C 44.890625 26.128906 44.78125 26.085938 44.667969 26.050781 C 44.554688 26.015625 44.445312 25.976562 44.332031 25.941406 C 44.21875 25.910156 44.105469 25.875 43.992188 25.84375 C 43.878906 25.8125 43.765625 25.78125 43.652344 25.753906 Z M 43.652344 25.753906 "/>
<path style="fill-rule:nonzero;fill:rgb(99.607843%,99.607843%,99.607843%);fill-opacity:1;stroke-width:2.2223;stroke-linecap:butt;stroke-linejoin:miter;stroke:rgb(11.764706%,11.372549%,11.372549%);stroke-opacity:1;stroke-miterlimit:10;" d="M 442.1875 465.491071 C 442.1875 465.491071 416.651786 551.964286 480 567.589286 C 480 567.589286 543.928571 575.625 556.696429 491.116071 C 556.696429 491.116071 534.955357 476.651786 442.1875 465.491071 Z M 442.1875 465.491071 " transform="matrix(0.0875,0,0,0.0875,0,0)"/>
<path style=" stroke:none;fill-rule:nonzero;fill:rgb(0%,0%,0%);fill-opacity:1;" d="M 23.574219 43.640625 C 23.574219 43.640625 23.742188 43.5625 24.039062 43.433594 C 24.1875 43.371094 24.367188 43.296875 24.574219 43.214844 C 24.785156 43.132812 25.019531 43.039062 25.28125 42.945312 C 25.539062 42.847656 25.824219 42.75 26.125 42.648438 C 26.425781 42.546875 26.742188 42.445312 27.074219 42.34375 C 27.238281 42.292969 27.410156 42.242188 27.578125 42.195312 C 27.75 42.140625 27.921875 42.09375 28.097656 42.046875 C 28.449219 41.949219 28.804688 41.855469 29.164062 41.769531 C 29.34375 41.726562 29.523438 41.683594 29.703125 41.644531 C 29.882812 41.605469 30.0625 41.566406 30.238281 41.527344 C 30.59375 41.449219 30.945312 41.386719 31.285156 41.328125 C 31.457031 41.296875 31.625 41.261719 31.789062 41.238281 C 31.953125 41.214844 32.113281 41.191406 32.273438 41.167969 C 32.429688 41.144531 32.582031 41.125 32.730469 41.101562 C 32.878906 41.082031 33.019531 41.070312 33.160156 41.054688 C 33.433594 41.023438 33.6875 41 33.910156 40.980469 C 34.132812 40.960938 34.332031 40.953125 34.492188 40.941406 C 34.8125 40.925781 35 40.921875 35 40.921875 C 35 40.921875 34.816406 40.960938 34.5 41.019531 C 34.34375 41.050781 34.152344 41.085938 33.929688 41.125 C 33.710938 41.171875 33.464844 41.222656 33.191406 41.273438 C 32.921875 41.324219 32.632812 41.390625 32.324219 41.453125 C 32.167969 41.484375 32.011719 41.519531 31.847656 41.554688 C 31.6875 41.589844 31.523438 41.625 31.355469 41.664062 C 31.1875 41.699219 31.015625 41.738281 30.84375 41.773438 C 30.671875 41.816406 30.496094 41.855469 30.320312 41.898438 C 30.144531 41.9375 29.96875 41.976562 29.789062 42.019531 C 29.613281 42.0625 29.433594 42.105469 29.257812 42.148438 C 28.898438 42.230469 28.542969 42.324219 28.195312 42.410156 C 27.84375 42.5 27.5 42.585938 27.167969 42.671875 C 26.835938 42.757812 26.511719 42.84375 26.207031 42.925781 C 25.902344 43.007812 25.617188 43.085938 25.347656 43.15625 C 24.285156 43.449219 23.574219 43.640625 23.574219 43.640625 Z M 23.574219 43.640625 "/>
<path style=" stroke:none;fill-rule:nonzero;fill:rgb(0%,0%,0%);fill-opacity:1;" d="M 38.109375 40.664062 C 38.109375 40.664062 38.289062 40.664062 38.609375 40.679688 C 38.925781 40.695312 39.378906 40.726562 39.917969 40.777344 C 40.1875 40.804688 40.480469 40.832031 40.792969 40.871094 C 41.101562 40.910156 41.425781 40.945312 41.761719 41 C 42.097656 41.050781 42.445312 41.101562 42.796875 41.167969 C 42.972656 41.199219 43.152344 41.226562 43.328125 41.261719 C 43.503906 41.300781 43.683594 41.335938 43.859375 41.371094 C 44.21875 41.441406 44.570312 41.527344 44.917969 41.609375 C 45.09375 41.648438 45.261719 41.695312 45.433594 41.742188 C 45.601562 41.789062 45.769531 41.835938 45.933594 41.878906 C 46.261719 41.972656 46.574219 42.078125 46.871094 42.171875 C 47.167969 42.269531 47.445312 42.378906 47.699219 42.472656 C 47.953125 42.570312 48.179688 42.675781 48.386719 42.765625 C 48.484375 42.8125 48.582031 42.847656 48.667969 42.894531 C 48.75 42.9375 48.828125 42.980469 48.898438 43.015625 C 49.179688 43.164062 49.339844 43.253906 49.339844 43.253906 C 49.339844 43.253906 49.167969 43.195312 48.871094 43.085938 C 48.722656 43.03125 48.542969 42.964844 48.332031 42.902344 C 48.226562 42.871094 48.113281 42.835938 47.996094 42.796875 C 47.878906 42.761719 47.757812 42.714844 47.628906 42.683594 C 47.367188 42.609375 47.085938 42.53125 46.789062 42.449219 C 46.488281 42.375 46.171875 42.292969 45.84375 42.210938 C 45.515625 42.136719 45.179688 42.054688 44.832031 41.976562 C 44.484375 41.90625 44.136719 41.820312 43.78125 41.75 C 43.429688 41.675781 43.078125 41.605469 42.730469 41.539062 C 42.554688 41.503906 42.382812 41.46875 42.210938 41.433594 C 42.039062 41.402344 41.871094 41.367188 41.707031 41.335938 C 41.039062 41.210938 40.421875 41.097656 39.886719 40.996094 C 39.355469 40.898438 38.910156 40.816406 38.597656 40.757812 C 38.289062 40.699219 38.109375 40.664062 38.109375 40.664062 Z M 38.109375 40.664062 "/>
<path style="fill-rule:nonzero;fill:rgb(99.215686%,99.607843%,99.215686%);fill-opacity:1;stroke-width:2.2223;stroke-linecap:butt;stroke-linejoin:miter;stroke:rgb(11.764706%,11.372549%,11.372549%);stroke-opacity:1;stroke-miterlimit:10;" d="M 274.6875 496.875 C 274.6875 496.875 287.767857 577.678571 355 566.5625 C 355 566.5625 408.660714 561.026786 392.633929 468.526786 C 392.633929 468.526786 326.651786 475.535714 274.6875 496.875 Z M 274.6875 496.875 " transform="matrix(0.0875,0,0,0.0875,0,0)"/>
<path style=" stroke:none;fill-rule:nonzero;fill:rgb(0%,1.960784%,1.960784%);fill-opacity:1;" d="M 33.699219 47.6875 C 33.699219 47.6875 31.351562 48.308594 31.644531 43.640625 L 33.296875 43.886719 L 31.984375 42.28125 C 31.984375 42.28125 32.199219 41.601562 32.917969 41.1875 L 34.355469 40.996094 C 34.355469 40.996094 35.320312 44.828125 33.699219 47.6875 Z M 33.699219 47.6875 "/>
<path style=" stroke:none;fill-rule:nonzero;fill:rgb(0%,1.960784%,1.960784%);fill-opacity:1;" d="M 46.734375 42.28125 C 46.734375 42.28125 46.179688 42.671875 45.886719 43.640625 L 47.152344 44.355469 L 45.59375 44.355469 C 45.59375 44.355469 45.253906 47.167969 46.566406 47.714844 C 46.566406 47.714844 48.03125 46.429688 48.710938 42.972656 C 48.710938 42.972656 47.847656 42.585938 46.734375 42.28125 Z M 46.734375 42.28125 "/>
<path style="fill-rule:nonzero;fill:rgb(90.196078%,69.411765%,16.078431%);fill-opacity:1;stroke-width:1.1111;stroke-linecap:butt;stroke-linejoin:miter;stroke:rgb(11.764706%,11.372549%,11.372549%);stroke-opacity:1;stroke-miterlimit:10;" d="M 548.303571 572.098214 C 557.946429 554.330357 541.071429 558.75 541.071429 558.75 C 465.535714 604.330357 418.883929 553.214286 418.883929 553.214286 C 368.883929 605.982143 297.767857 564.330357 297.767857 564.330357 C 279.419643 555.982143 286.071429 574.866071 286.071429 574.866071 C 286.071429 574.866071 329.598214 640.625 409.419643 638.214286 C 409.419643 638.214286 512.589286 638.035714 548.303571 572.098214 Z M 548.303571 572.098214 " transform="matrix(0.0875,0,0,0.0875,0,0)"/>
<path style=" stroke:none;fill-rule:nonzero;fill:rgb(0%,0%,0%);fill-opacity:1;" d="M 26.214844 50.546875 C 26.878906 50.960938 27.539062 51.382812 28.199219 51.800781 C 28.859375 52.21875 29.515625 52.644531 30.171875 53.066406 L 30.175781 53.066406 L 30.183594 53.074219 C 30.195312 53.082031 30.210938 53.097656 30.226562 53.105469 C 30.238281 53.117188 30.257812 53.128906 30.273438 53.136719 C 30.304688 53.15625 30.339844 53.175781 30.375 53.1875 C 30.410156 53.203125 30.449219 53.214844 30.484375 53.222656 C 30.523438 53.230469 30.5625 53.234375 30.601562 53.242188 C 30.636719 53.242188 30.675781 53.246094 30.714844 53.242188 C 30.753906 53.242188 30.792969 53.238281 30.832031 53.230469 C 30.871094 53.226562 30.910156 53.214844 30.945312 53.207031 C 30.984375 53.195312 31.023438 53.183594 31.058594 53.171875 L 31.066406 53.171875 C 31.402344 53.082031 31.738281 53.007812 32.078125 52.9375 C 32.25 52.90625 32.417969 52.871094 32.589844 52.839844 L 33.101562 52.75 C 33.445312 52.699219 33.785156 52.644531 34.128906 52.605469 C 34.472656 52.558594 34.816406 52.527344 35.160156 52.492188 C 35.335938 52.472656 35.507812 52.464844 35.679688 52.453125 C 35.851562 52.441406 36.023438 52.421875 36.199219 52.421875 C 36.542969 52.410156 36.890625 52.390625 37.238281 52.398438 L 37.757812 52.402344 C 37.929688 52.40625 38.105469 52.417969 38.277344 52.425781 C 38.449219 52.4375 38.625 52.4375 38.796875 52.457031 L 39.3125 52.507812 L 39.574219 52.53125 C 39.660156 52.542969 39.746094 52.558594 39.832031 52.570312 L 40.34375 52.652344 C 40.515625 52.671875 40.683594 52.71875 40.855469 52.753906 L 41.363281 52.867188 C 41.683594 52.953125 42.027344 52.949219 42.347656 52.867188 C 42.511719 52.824219 42.664062 52.761719 42.808594 52.679688 L 43.257812 52.421875 C 43.554688 52.246094 43.851562 52.070312 44.148438 51.890625 C 44.441406 51.710938 44.738281 51.535156 45.03125 51.351562 C 45.324219 51.171875 45.613281 50.984375 45.898438 50.789062 L 46.109375 50.640625 L 46.320312 50.488281 C 46.457031 50.386719 46.589844 50.277344 46.714844 50.15625 C 46.597656 50.28125 46.46875 50.398438 46.332031 50.507812 L 46.128906 50.667969 L 45.921875 50.824219 C 45.640625 51.027344 45.359375 51.222656 45.070312 51.414062 C 44.496094 51.800781 43.910156 52.164062 43.320312 52.523438 L 42.878906 52.792969 C 42.726562 52.886719 42.558594 52.957031 42.386719 53.003906 C 42.042969 53.101562 41.675781 53.109375 41.324219 53.023438 L 40.820312 52.917969 C 40.652344 52.882812 40.488281 52.839844 40.316406 52.820312 L 39.808594 52.742188 C 39.722656 52.730469 39.636719 52.714844 39.550781 52.707031 L 39.296875 52.683594 L 38.78125 52.636719 C 38.613281 52.617188 38.441406 52.617188 38.269531 52.609375 C 38.097656 52.601562 37.925781 52.589844 37.753906 52.585938 L 37.238281 52.585938 C 36.894531 52.582031 36.550781 52.605469 36.207031 52.613281 C 36.035156 52.613281 35.863281 52.632812 35.691406 52.640625 C 35.519531 52.652344 35.347656 52.660156 35.175781 52.675781 C 34.835938 52.710938 34.492188 52.738281 34.152344 52.78125 C 33.808594 52.820312 33.46875 52.871094 33.128906 52.921875 L 32.621094 53.007812 C 32.449219 53.035156 32.28125 53.070312 32.113281 53.101562 C 31.773438 53.167969 31.4375 53.234375 31.105469 53.316406 L 31.109375 53.3125 C 31.070312 53.328125 31.027344 53.339844 30.984375 53.351562 C 30.941406 53.359375 30.898438 53.371094 30.851562 53.375 C 30.808594 53.382812 30.765625 53.386719 30.71875 53.386719 C 30.675781 53.390625 30.628906 53.386719 30.585938 53.382812 C 30.539062 53.375 30.496094 53.371094 30.453125 53.355469 C 30.410156 53.347656 30.367188 53.332031 30.324219 53.316406 C 30.28125 53.296875 30.242188 53.277344 30.203125 53.253906 C 30.183594 53.242188 30.164062 53.230469 30.148438 53.214844 C 30.128906 53.203125 30.109375 53.1875 30.089844 53.167969 L 30.101562 53.175781 C 29.453125 52.742188 28.800781 52.308594 28.152344 51.867188 C 27.507812 51.425781 26.859375 50.992188 26.214844 50.546875 Z M 26.214844 50.546875 "/>
</g>
</svg>
